<?xml version="1.0" encoding="utf-8"?>
<svg width="456px" height="456px" viewBox="0 0 456 456" version="1.1" xmlns:xlink="http://www.w3.org/1999/xlink" xmlns="http://www.w3.org/2000/svg">
  <g id="Robot">
    <path d="M0 0L456 0L456 456L0 456L0 0L0 0Z" id="Background" fill="none" fill-rule="evenodd" stroke="none" />
    <path d="M268.184 146.041C268.11 146.041 267.292 146.338 266.4 146.71C263.725 147.75 262.313 150.722 262.61 154.438C262.833 157.634 262.61 158.005 254.658 168.186L246.484 178.59L229.169 178.665L211.853 178.665L213.042 176.435C216.238 170.267 212.745 163.133 206.577 163.059C200.631 163.059 196.768 170.044 199.591 175.766C200.26 177.03 200.78 178.293 200.78 178.442C200.78 178.516 196.693 178.665 191.788 178.665C186.809 178.665 181.459 179.037 179.823 179.556C174.027 181.266 168.082 188.177 167.041 194.271C166.744 195.682 168.082 209.802 169.866 225.705C172.689 250.973 173.284 254.911 174.919 258.032C176.926 261.971 181.682 265.91 185.769 267.099C189.485 268.139 266.326 268.139 270.041 267.099C274.129 265.91 278.885 261.971 280.892 258.032C282.452 254.986 283.121 250.898 285.945 225.409C289.141 197.318 289.215 196.054 288.1 192.19C286.763 187.657 282.452 182.529 278.216 180.374C275.987 179.333 273.089 178.962 263.428 178.665L251.388 178.293L258.82 168.781C265.137 160.755 266.623 159.343 268.333 159.343C272.568 159.343 275.392 153.844 273.237 149.756C272.345 147.899 269.224 145.669 268.184 146.041L268.184 146.041ZM207.782 236.393L210.994 236.393L205.066 228.035C204.953 227.607 204.783 227.22 204.545 226.856L215.032 212.121L206.544 212.121L200.12 221.114L193.743 212.121L190.531 212.121L199.071 224.137C198.37 224.335 197.677 224.732 197.06 225.255L189.063 214.002L183.786 214.002L194.201 228.639L182.914 244.514L191.403 244.514L198.324 234.806C198.456 234.865 198.589 234.917 198.724 234.961L205.534 244.514L214.022 244.514L209.342 237.953L206.085 237.953L203.118 233.777C203.719 233.256 204.234 232.619 204.607 231.924L207.782 236.393L207.782 236.393ZM247.599 231.502C247.599 226.894 253.766 224.888 257.482 228.232C260.455 230.982 257.557 236.63 253.172 236.63C250.571 236.63 247.599 233.88 247.599 231.502L247.599 231.502ZM219.285 295.338C212.373 293.406 207.394 287.461 206.874 280.55C206.726 278.172 206.949 274.976 207.468 273.49L208.361 270.814L228.276 270.814C229.571 270.814 230.786 270.813 231.927 270.812L231.929 270.812C244.396 270.8 247.985 270.796 249.268 272.514C249.902 273.364 249.972 274.636 250.274 276.536C251.463 283.894 246.112 292.44 238.904 294.892C234.965 296.23 223.446 296.527 219.285 295.338L219.285 295.338ZM200.929 280.029C198.476 277.577 197.808 276.388 197.808 274.381C197.808 272.97 198.031 271.558 198.328 271.335C198.551 271.037 200.186 270.814 201.895 270.814L205.016 270.814L204.719 276.166C204.496 279.138 204.273 281.888 204.199 282.333C204.05 282.705 202.564 281.665 200.929 280.029L200.929 280.029ZM257.706 275.868C256.665 277.949 253.692 280.922 253.321 280.401C253.172 280.252 252.726 278.023 252.355 275.422L251.612 270.814L255.179 270.814C258.3 270.814 258.746 271.037 258.746 272.301C258.746 273.192 258.3 274.753 257.706 275.868L257.706 275.868ZM241.579 306.931C238.829 310.275 234.222 309.384 232.661 305.222C231.398 301.878 232.736 299.574 236.525 298.608C239.35 297.865 239.944 297.94 241.207 299.054C242.768 300.615 242.991 305.222 241.579 306.931L241.579 306.931ZM225.676 303.587C225.676 309.384 219.731 311.985 216.238 307.823C214.751 306.114 214.454 301.952 215.717 299.723C216.387 298.459 216.981 298.311 220.325 298.757C222.48 299.054 224.487 299.574 224.932 299.946C225.304 300.243 225.676 301.952 225.676 303.587L225.676 303.587Z" id="Vector-Difference" fill="#FFFFFF" fill-rule="evenodd" stroke="none" />
  </g>
</svg>